<?xml version="1.0" encoding="utf-8"?>
<!-- Generator: Adobe Illustrator 23.1.1, SVG Export Plug-In . SVG Version: 6.00 Build 0)  -->
<svg version="1.1" id="Ebene_1" xmlns="http://www.w3.org/2000/svg" xmlns:xlink="http://www.w3.org/1999/xlink" x="0px" y="0px"
	 viewBox="0 0 299 21" style="enable-background:new 0 0 299 21;" xml:space="preserve">
<g>
	<path d="M0.8,16.5V1.7h4.4c1.6,0,2.8,0.3,3.6,1C9.6,3.4,10,4.3,10,5.6c0,0.8-0.2,1.4-0.6,2c-0.4,0.6-1,1-1.7,1.2
		C8.5,9,9.2,9.4,9.8,10.1c0.5,0.7,0.8,1.4,0.8,2.3c0,1.3-0.4,2.3-1.3,3.1c-0.8,0.7-2,1.1-3.5,1.1H0.8z M2.1,8.4h3.4
		c1,0,1.9-0.3,2.4-0.7c0.6-0.5,0.9-1.2,0.9-2.1c0-1-0.3-1.7-0.9-2.1S6.4,2.8,5.2,2.8H2.1V8.4z M2.1,9.4v6.1h3.8
		c1.1,0,1.9-0.3,2.5-0.8c0.6-0.5,0.9-1.3,0.9-2.3c0-0.9-0.3-1.6-0.9-2.2C7.8,9.7,7,9.4,5.9,9.4H2.1z"/>
	<path d="M17.9,16.7c-0.9,0-1.8-0.2-2.5-0.7c-0.8-0.5-1.3-1.1-1.8-1.9c-0.4-0.8-0.6-1.7-0.6-2.8v-0.4c0-1.1,0.2-2,0.6-2.9
		c0.4-0.8,1-1.5,1.7-2c0.7-0.5,1.5-0.7,2.4-0.7c1.3,0,2.4,0.5,3.2,1.4c0.8,0.9,1.2,2.2,1.2,3.7v0.7h-7.9v0.2c0,1.2,0.4,2.3,1.1,3.1
		c0.7,0.8,1.6,1.2,2.7,1.2c0.7,0,1.2-0.1,1.7-0.4c0.5-0.2,1-0.6,1.4-1.1l0.8,0.6C20.9,16.1,19.6,16.7,17.9,16.7z M17.6,6.4
		c-0.9,0-1.7,0.3-2.3,1s-1,1.6-1.1,2.7h6.6V10c0-1.1-0.3-1.9-0.9-2.6C19.3,6.7,18.6,6.4,17.6,6.4z"/>
	<path d="M29.6,6.6c-0.3,0-0.5-0.1-0.8-0.1c-0.8,0-1.4,0.2-1.9,0.6c-0.5,0.4-0.9,1-1.1,1.8v7.6h-1.2v-11h1.2l0,1.7
		c0.6-1.3,1.7-2,3.1-2c0.3,0,0.6,0,0.8,0.1L29.6,6.6z"/>
	<path d="M33.1,16.5h-1.2V0.9h1.2V16.5z"/>
	<path d="M36.2,2.4c0-0.2,0.1-0.4,0.2-0.6c0.1-0.2,0.4-0.2,0.6-0.2s0.5,0.1,0.6,0.2c0.2,0.2,0.2,0.4,0.2,0.6c0,0.2-0.1,0.4-0.2,0.6
		s-0.4,0.2-0.6,0.2s-0.5-0.1-0.6-0.2S36.2,2.6,36.2,2.4z M37.7,16.5h-1.2v-11h1.2V16.5z"/>
	<path d="M42.2,5.5l0,1.9c0.4-0.7,0.9-1.2,1.5-1.6c0.6-0.4,1.3-0.5,2-0.5c1.2,0,2.1,0.3,2.6,1C49,7,49.3,8,49.3,9.3v7.2h-1.2V9.3
		c0-1-0.2-1.7-0.6-2.2c-0.4-0.5-1.1-0.7-2-0.7c-0.8,0-1.4,0.2-2,0.7c-0.6,0.5-1,1.1-1.3,1.9v7.5H41v-11H42.2z"/>
	<path d="M56.9,16.7c-0.9,0-1.8-0.2-2.5-0.7c-0.8-0.5-1.3-1.1-1.8-1.9c-0.4-0.8-0.6-1.7-0.6-2.8v-0.4c0-1.1,0.2-2,0.6-2.9
		c0.4-0.8,1-1.5,1.7-2c0.7-0.5,1.5-0.7,2.4-0.7c1.3,0,2.4,0.5,3.2,1.4c0.8,0.9,1.2,2.2,1.2,3.7v0.7h-7.9v0.2c0,1.2,0.4,2.3,1.1,3.1
		c0.7,0.8,1.6,1.2,2.7,1.2c0.7,0,1.2-0.1,1.7-0.4c0.5-0.2,1-0.6,1.4-1.1l0.8,0.6C59.9,16.1,58.6,16.7,56.9,16.7z M56.6,6.4
		c-0.9,0-1.7,0.3-2.3,1c-0.6,0.7-1,1.6-1.1,2.7h6.6V10c0-1.1-0.3-1.9-0.9-2.6S57.6,6.4,56.6,6.4z"/>
	<path d="M68.6,6.6c-0.3,0-0.5-0.1-0.8-0.1c-0.8,0-1.4,0.2-1.9,0.6c-0.5,0.4-0.9,1-1.1,1.8v7.6h-1.2v-11h1.2l0,1.7
		c0.6-1.3,1.7-2,3.1-2c0.3,0,0.6,0,0.8,0.1L68.6,6.6z"/>
	<path d="M76.4,16.5V1.7h4.4c1.6,0,2.8,0.3,3.6,1c0.8,0.7,1.2,1.6,1.2,2.9c0,0.8-0.2,1.4-0.6,2c-0.4,0.6-1,1-1.7,1.2
		c0.9,0.2,1.6,0.6,2.1,1.3c0.5,0.7,0.8,1.4,0.8,2.3c0,1.3-0.4,2.3-1.3,3.1c-0.8,0.7-2,1.1-3.5,1.1H76.4z M77.7,8.4h3.4
		c1,0,1.9-0.3,2.4-0.7c0.6-0.5,0.9-1.2,0.9-2.1c0-1-0.3-1.7-0.9-2.1C82.9,3,82,2.8,80.8,2.8h-3.1V8.4z M77.7,9.4v6.1h3.8
		c1.1,0,1.9-0.3,2.5-0.8c0.6-0.5,0.9-1.3,0.9-2.3c0-0.9-0.3-1.6-0.9-2.2c-0.6-0.5-1.4-0.8-2.5-0.8H77.7z"/>
	<path d="M93.5,16.7c-0.9,0-1.8-0.2-2.5-0.7c-0.8-0.5-1.3-1.1-1.8-1.9c-0.4-0.8-0.6-1.7-0.6-2.8v-0.4c0-1.1,0.2-2,0.6-2.9
		c0.4-0.8,1-1.5,1.7-2c0.7-0.5,1.5-0.7,2.4-0.7c1.3,0,2.4,0.5,3.2,1.4c0.8,0.9,1.2,2.2,1.2,3.7v0.7h-7.9v0.2c0,1.2,0.4,2.3,1.1,3.1
		c0.7,0.8,1.6,1.2,2.7,1.2c0.7,0,1.2-0.1,1.7-0.4c0.5-0.2,1-0.6,1.4-1.1l0.8,0.6C96.5,16.1,95.2,16.7,93.5,16.7z M93.2,6.4
		c-0.9,0-1.7,0.3-2.3,1s-1,1.6-1.1,2.7h6.6V10c0-1.1-0.3-1.9-0.9-2.6C94.9,6.7,94.2,6.4,93.2,6.4z"/>
	<path d="M100.8,15.5h7.2v1h-8.7v-0.9l6.7-9.1h-6.5V5.5h8v0.9L100.8,15.5z"/>
	<path d="M110.1,2.4c0-0.2,0.1-0.4,0.2-0.6c0.1-0.2,0.4-0.2,0.6-0.2c0.3,0,0.5,0.1,0.6,0.2c0.2,0.2,0.2,0.4,0.2,0.6
		c0,0.2-0.1,0.4-0.2,0.6s-0.4,0.2-0.6,0.2c-0.3,0-0.5-0.1-0.6-0.2C110.2,2.8,110.1,2.6,110.1,2.4z M111.5,16.5h-1.2v-11h1.2V16.5z"
		/>
	<path d="M119.9,6.6c-0.3,0-0.5-0.1-0.8-0.1c-0.8,0-1.4,0.2-1.9,0.6c-0.5,0.4-0.9,1-1.1,1.8v7.6h-1.2v-11h1.2l0,1.7
		c0.6-1.3,1.7-2,3.1-2c0.3,0,0.6,0,0.8,0.1L119.9,6.6z"/>
	<path d="M124.7,11l-1.4,1.3v4.2h-1.2V0.9h1.2v10l1.1-1.2l4.2-4.1h1.5l-4.7,4.6l5.1,6.4h-1.5L124.7,11z"/>
	<path d="M138.8,13.7c0-0.6-0.2-1.1-0.7-1.5c-0.5-0.4-1.2-0.7-2.2-0.9c-1-0.2-1.7-0.4-2.3-0.7c-0.5-0.3-0.9-0.6-1.2-1
		c-0.3-0.4-0.4-0.9-0.4-1.4c0-0.9,0.4-1.6,1.1-2.2s1.7-0.8,2.8-0.8c1.2,0,2.2,0.3,3,0.9s1.1,1.4,1.1,2.4h-1.2c0-0.6-0.3-1.2-0.8-1.6
		c-0.5-0.4-1.2-0.6-2-0.6c-0.8,0-1.4,0.2-1.9,0.5c-0.5,0.4-0.7,0.8-0.7,1.4c0,0.5,0.2,1,0.6,1.3c0.4,0.3,1.1,0.6,2.2,0.8
		c1.1,0.3,1.9,0.5,2.4,0.8c0.5,0.3,0.9,0.6,1.2,1c0.3,0.4,0.4,0.9,0.4,1.5c0,0.9-0.4,1.7-1.1,2.2c-0.7,0.6-1.7,0.8-2.9,0.8
		c-1.3,0-2.3-0.3-3.1-0.9c-0.8-0.6-1.2-1.4-1.2-2.4h1.2c0,0.7,0.3,1.3,0.9,1.7c0.6,0.4,1.3,0.6,2.2,0.6c0.8,0,1.5-0.2,2.1-0.6
		C138.6,14.8,138.8,14.3,138.8,13.7z"/>
	<path d="M147.9,6.6c-0.3,0-0.5-0.1-0.8-0.1c-0.8,0-1.4,0.2-1.9,0.6c-0.5,0.4-0.9,1-1.1,1.8v7.6h-1.2v-11h1.2l0,1.7
		c0.6-1.3,1.7-2,3.1-2c0.3,0,0.6,0,0.8,0.1L147.9,6.6z"/>
	<path d="M154,16.7c-0.9,0-1.8-0.2-2.5-0.7c-0.8-0.5-1.3-1.1-1.8-1.9c-0.4-0.8-0.6-1.7-0.6-2.8v-0.4c0-1.1,0.2-2,0.6-2.9
		c0.4-0.8,1-1.5,1.7-2c0.7-0.5,1.5-0.7,2.4-0.7c1.3,0,2.4,0.5,3.2,1.4s1.2,2.2,1.2,3.7v0.7h-7.9v0.2c0,1.2,0.4,2.3,1.1,3.1
		c0.7,0.8,1.6,1.2,2.7,1.2c0.7,0,1.2-0.1,1.7-0.4c0.5-0.2,1-0.6,1.4-1.1l0.8,0.6C157,16.1,155.7,16.7,154,16.7z M153.8,6.4
		c-0.9,0-1.7,0.3-2.3,1c-0.6,0.7-1,1.6-1.1,2.7h6.6V10c0-1.1-0.3-1.9-0.9-2.6S154.7,6.4,153.8,6.4z"/>
	<path d="M160.2,10.9c0-1.7,0.4-3.1,1.1-4.1s1.8-1.5,3.1-1.5c1.5,0,2.6,0.6,3.4,1.8l0.1-1.6h1.1v10.8c0,1.4-0.4,2.5-1.2,3.4
		c-0.8,0.8-1.9,1.2-3.2,1.2c-0.8,0-1.5-0.2-2.2-0.5c-0.7-0.3-1.2-0.8-1.6-1.4l0.7-0.7c0.9,1.1,1.9,1.6,3.1,1.6c1,0,1.8-0.3,2.4-0.9
		c0.6-0.6,0.9-1.4,0.9-2.5v-1.4c-0.8,1.1-1.9,1.6-3.4,1.6c-1.3,0-2.3-0.5-3.1-1.5c-0.8-1-1.2-2.4-1.2-4.1V10.9z M161.5,11.2
		c0,1.4,0.3,2.5,0.8,3.3c0.6,0.8,1.4,1.2,2.4,1.2c1.5,0,2.6-0.7,3.2-2V8.6c-0.3-0.7-0.7-1.2-1.2-1.6c-0.5-0.4-1.2-0.6-1.9-0.6
		c-1,0-1.8,0.4-2.4,1.2C161.8,8.4,161.5,9.6,161.5,11.2z"/>
	<path d="M172.2,2.4c0-0.2,0.1-0.4,0.2-0.6c0.1-0.2,0.4-0.2,0.6-0.2c0.3,0,0.5,0.1,0.6,0.2c0.2,0.2,0.2,0.4,0.2,0.6
		c0,0.2-0.1,0.4-0.2,0.6c-0.2,0.2-0.4,0.2-0.6,0.2c-0.3,0-0.5-0.1-0.6-0.2C172.3,2.8,172.2,2.6,172.2,2.4z M173.7,16.5h-1.2v-11h1.2
		V16.5z"/>
	<path d="M176.4,10.9c0-1.1,0.2-2,0.6-2.9c0.4-0.8,1-1.5,1.7-2c0.7-0.5,1.6-0.7,2.5-0.7c1.5,0,2.7,0.5,3.6,1.5s1.4,2.4,1.4,4.1v0.3
		c0,1.1-0.2,2-0.6,2.9c-0.4,0.9-1,1.5-1.7,2c-0.7,0.5-1.6,0.7-2.6,0.7c-1.5,0-2.6-0.5-3.6-1.5s-1.4-2.4-1.4-4.1V10.9z M177.6,11.2
		c0,1.3,0.3,2.4,1,3.2c0.7,0.8,1.6,1.3,2.7,1.3c1.1,0,2-0.4,2.7-1.3c0.7-0.8,1-2,1-3.3v-0.2c0-0.8-0.2-1.6-0.5-2.3s-0.7-1.2-1.3-1.6
		c-0.6-0.4-1.2-0.6-1.9-0.6c-1.1,0-2,0.4-2.7,1.3c-0.7,0.9-1,2-1,3.3V11.2z"/>
	<path d="M190,5.5l0,1.9c0.4-0.7,0.9-1.2,1.5-1.6s1.3-0.5,2-0.5c1.2,0,2.1,0.3,2.6,1c0.6,0.7,0.9,1.7,0.9,3v7.2H196V9.3
		c0-1-0.2-1.7-0.6-2.2c-0.4-0.5-1.1-0.7-2-0.7c-0.8,0-1.4,0.2-2,0.7c-0.6,0.5-1,1.1-1.3,1.9v7.5h-1.2v-11H190z"/>
	<path d="M204.7,16.7c-0.9,0-1.8-0.2-2.5-0.7c-0.8-0.5-1.3-1.1-1.8-1.9c-0.4-0.8-0.6-1.7-0.6-2.8v-0.4c0-1.1,0.2-2,0.6-2.9
		c0.4-0.8,1-1.5,1.7-2c0.7-0.5,1.5-0.7,2.4-0.7c1.3,0,2.4,0.5,3.2,1.4s1.2,2.2,1.2,3.7v0.7H201v0.2c0,1.2,0.4,2.3,1.1,3.1
		c0.7,0.8,1.6,1.2,2.7,1.2c0.7,0,1.2-0.1,1.7-0.4c0.5-0.2,1-0.6,1.4-1.1l0.8,0.6C207.7,16.1,206.4,16.7,204.7,16.7z M204.5,6.4
		c-0.9,0-1.7,0.3-2.3,1c-0.6,0.7-1,1.6-1.1,2.7h6.6V10c0-1.1-0.3-1.9-0.9-2.6S205.4,6.4,204.5,6.4z"/>
	<path d="M212.6,5.5l0,1.9c0.4-0.7,0.9-1.2,1.5-1.6s1.3-0.5,2-0.5c1.2,0,2.1,0.3,2.6,1s0.9,1.7,0.9,3v7.2h-1.2V9.3
		c0-1-0.2-1.7-0.6-2.2c-0.4-0.5-1.1-0.7-2-0.7c-0.8,0-1.4,0.2-2,0.7c-0.6,0.5-1,1.1-1.3,1.9v7.5h-1.2v-11H212.6z"/>
	<path d="M230.4,1.7l5.5,13.1l5.5-13.1h1.7v14.8h-1.3v-6.4l0.1-6.6l-5.5,13.1h-1l-5.5-13l0.1,6.5v6.5h-1.3V1.7H230.4z"/>
	<path d="M246,10.9c0-1.1,0.2-2,0.6-2.9c0.4-0.8,1-1.5,1.7-2c0.7-0.5,1.6-0.7,2.5-0.7c1.5,0,2.7,0.5,3.6,1.5c0.9,1,1.4,2.4,1.4,4.1
		v0.3c0,1.1-0.2,2-0.6,2.9c-0.4,0.9-1,1.5-1.7,2c-0.7,0.5-1.6,0.7-2.6,0.7c-1.5,0-2.6-0.5-3.6-1.5s-1.4-2.4-1.4-4.1V10.9z
		 M247.2,11.2c0,1.3,0.3,2.4,1,3.2c0.7,0.8,1.6,1.3,2.7,1.3c1.1,0,2-0.4,2.7-1.3c0.7-0.8,1-2,1-3.3v-0.2c0-0.8-0.2-1.6-0.5-2.3
		s-0.7-1.2-1.3-1.6c-0.6-0.4-1.2-0.6-1.9-0.6c-1.1,0-2,0.4-2.7,1.3c-0.7,0.9-1,2-1,3.3V11.2z"/>
	<path d="M259.6,5.5l0,1.9c0.4-0.7,0.9-1.2,1.5-1.6s1.3-0.5,2-0.5c1.2,0,2.1,0.3,2.6,1c0.6,0.7,0.9,1.7,0.9,3v7.2h-1.2V9.3
		c0-1-0.2-1.7-0.6-2.2c-0.4-0.5-1.1-0.7-2-0.7c-0.8,0-1.4,0.2-2,0.7c-0.6,0.5-1,1.1-1.3,1.9v7.5h-1.2v-11H259.6z"/>
	<path d="M269.8,2.4c0-0.2,0.1-0.4,0.2-0.6c0.1-0.2,0.4-0.2,0.6-0.2c0.3,0,0.5,0.1,0.6,0.2c0.2,0.2,0.2,0.4,0.2,0.6
		c0,0.2-0.1,0.4-0.2,0.6s-0.4,0.2-0.6,0.2c-0.3,0-0.5-0.1-0.6-0.2S269.8,2.6,269.8,2.4z M271.3,16.5H270v-11h1.2V16.5z"/>
	<path d="M276.6,2.7v2.8h2.3v1h-2.3v7.3c0,0.6,0.1,1.1,0.3,1.4c0.2,0.3,0.6,0.4,1.1,0.4c0.2,0,0.5,0,1-0.1l0.1,1
		c-0.3,0.1-0.8,0.2-1.3,0.2c-0.8,0-1.4-0.2-1.8-0.7c-0.4-0.5-0.6-1.2-0.6-2.1V6.5h-2v-1h2V2.7H276.6z"/>
	<path d="M280.4,10.9c0-1.1,0.2-2,0.6-2.9c0.4-0.8,1-1.5,1.7-2c0.7-0.5,1.6-0.7,2.5-0.7c1.5,0,2.7,0.5,3.6,1.5
		c0.9,1,1.4,2.4,1.4,4.1v0.3c0,1.1-0.2,2-0.6,2.9c-0.4,0.9-1,1.5-1.7,2c-0.7,0.5-1.6,0.7-2.6,0.7c-1.5,0-2.6-0.5-3.6-1.5
		s-1.4-2.4-1.4-4.1V10.9z M281.6,11.2c0,1.3,0.3,2.4,1,3.2c0.7,0.8,1.6,1.3,2.7,1.3c1.1,0,2-0.4,2.7-1.3c0.7-0.8,1-2,1-3.3v-0.2
		c0-0.8-0.2-1.6-0.5-2.3c-0.3-0.7-0.7-1.2-1.3-1.6c-0.6-0.4-1.2-0.6-1.9-0.6c-1.1,0-2,0.4-2.7,1.3s-1,2-1,3.3V11.2z"/>
	<path d="M298,6.6c-0.3,0-0.5-0.1-0.8-0.1c-0.8,0-1.4,0.2-1.9,0.6c-0.5,0.4-0.9,1-1.1,1.8v7.6h-1.2v-11h1.2l0,1.7
		c0.6-1.3,1.7-2,3.1-2c0.3,0,0.6,0,0.8,0.1L298,6.6z"/>
</g>
</svg>
